<svg xmlns="http://www.w3.org/2000/svg" width="21" height="21" viewBox="0 0 21 21" fill="none">
  <path fill-rule="evenodd" clip-rule="evenodd" d="M10.4842 1.75C10.7549 1.75 10.9949 1.92433 11.0786 2.18182L12.9695 8H19.2342C19.5081 8 19.7501 8.17835 19.8312 8.43998C19.9122 8.70161 19.8135 8.98555 19.5876 9.14046L14.5088 12.6231L16.467 18.4251C16.5539 18.6828 16.4643 18.9671 16.2453 19.1283C16.0264 19.2895 15.7283 19.2907 15.5081 19.1311L10.4842 15.4906L5.46029 19.1311C5.24009 19.2907 4.942 19.2895 4.72301 19.1283C4.50403 18.9671 4.41441 18.6828 4.50137 18.4251L6.45956 12.6231L1.38072 9.14046C1.15482 8.98555 1.05611 8.70161 1.13719 8.43998C1.21828 8.17835 1.46027 8 1.73418 8H7.99887L9.88978 2.18182C9.97346 1.92433 10.2134 1.75 10.4842 1.75ZM10.4842 4.39709L9.04732 8.81818C8.96364 9.07567 8.72368 9.25 8.45293 9.25H3.7508L7.55638 11.8595C7.78704 12.0177 7.88455 12.3099 7.79511 12.5749L6.31157 16.9705L10.1174 14.2127C10.3362 14.0541 10.6321 14.0541 10.8509 14.2127L14.6568 16.9705L13.1732 12.5749C13.0838 12.3099 13.1813 12.0177 13.412 11.8595L17.2176 9.25H12.5154C12.2447 9.25 12.0047 9.07567 11.921 8.81818L10.4842 4.39709Z" fill="#FF859B"/>
</svg>