<svg xmlns="http://www.w3.org/2000/svg" width="21" height="21" viewBox="0 0 21 21" fill="none">
<path d="M15.8748 19.2503C15.7433 19.2508 15.6149 19.2098 15.508 19.1331L10.4842 15.4909L5.46037 19.1331C5.35304 19.211 5.22373 19.2526 5.09114 19.2522C4.95855 19.2517 4.82955 19.209 4.72279 19.1304C4.61603 19.0518 4.53704 18.9413 4.49724 18.8148C4.45744 18.6883 4.45889 18.5525 4.50138 18.4269L6.46076 12.6233L1.38264 9.14092C1.27264 9.06557 1.18962 8.95702 1.14571 8.83113C1.1018 8.70524 1.0993 8.56861 1.13857 8.4412C1.17784 8.31379 1.25682 8.20227 1.36399 8.12294C1.47115 8.04362 1.60087 8.00064 1.7342 8.00029H7.99904L9.88967 2.18193C9.93039 2.05632 10.0099 1.94683 10.1167 1.86917C10.2235 1.79152 10.3521 1.74969 10.4842 1.74969C10.6163 1.74969 10.7449 1.79152 10.8517 1.86917C10.9585 1.94683 11.038 2.05632 11.0787 2.18193L12.9694 8.00224H19.2342C19.3677 8.00218 19.4977 8.04486 19.6052 8.12403C19.7127 8.2032 19.792 8.31471 19.8315 8.44222C19.871 8.56973 19.8687 8.70654 19.8248 8.83262C19.7809 8.9587 19.6978 9.06743 19.5877 9.14287L14.5076 12.6233L16.4658 18.4253C16.4976 18.5192 16.5065 18.6194 16.4919 18.7174C16.4773 18.8155 16.4395 18.9087 16.3818 18.9893C16.324 19.0699 16.248 19.1356 16.1598 19.181C16.0717 19.2263 15.974 19.2501 15.8748 19.2503Z" fill="#FF859B"/>
</svg>